<?xml version="1.0" encoding="utf-8"?>
<svg xmlns="http://www.w3.org/2000/svg" style="display: none;">
  <symbol id="flower" viewBox="0 0 32 32">
    <path id="Path-2" data-name="Path" d="M0,0H2V2H0Z" transform="translate(12)" fill="#1a1a1a"/>
    <path id="Path-4" data-name="Path" d="M0,0H2V2H0Z" transform="translate(16)" fill="#1a1a1a"/>
    <path id="Path-5" data-name="Path" d="M0,0H2V2H0Z" transform="translate(10 2)" fill="#1a1a1a"/>
    <path id="Path-7" data-name="Path" d="M2,0H4V2H6V4H4V6H2V4H0V2H2Z" transform="translate(12 2)" fill="#1a1a1a"/>
    <path id="Path-9" data-name="Path" d="M0,0H2V2H0Z" transform="translate(18 2)" fill="#1a1a1a"/>
    <path id="Path-10" data-name="Path" d="M0,0H2V2H0Z" transform="translate(10 6)" fill="#1a1a1a"/>
    <path id="Path-13" data-name="Path" d="M0,0H2V2H0Z" transform="translate(18 6)" fill="#1a1a1a"/>
    <path id="Path-14" data-name="Path" d="M0,0H2V2H0Z" transform="translate(12 8)" fill="#1a1a1a"/>
    <path id="Path-16" data-name="Path" d="M0,0H2V2H0Z" transform="translate(16 8)" fill="#1a1a1a"/>
    <path id="Path-17" data-name="Path" d="M0,0H2V2H0Z" transform="translate(4 10)" fill="#1a1a1a"/>
    <path id="Path-18" data-name="Path" d="M0,0H2V2H0Z" transform="translate(8 10)" fill="#1a1a1a"/>
    <path id="Path-19" data-name="Path" d="M0,0H2V4H0Z" transform="translate(14 10)" fill="#1a1a1a"/>
    <path id="Path-20" data-name="Path" d="M0,0H2V2H0Z" transform="translate(2 12)" fill="#1a1a1a"/>
    <path id="Path-22" data-name="Path" d="M2,0H4V2H6V4H4V6H2V4H0V2H2Z" transform="translate(4 12)" fill="#1a1a1a"/>
    <path id="Path-24" data-name="Path" d="M0,0H2V2H0Z" transform="translate(10 12)" fill="#1a1a1a"/>
    <path id="Path-25" data-name="Path" d="M0,0H2V2H0Z" transform="translate(20 12)" fill="#1a1a1a"/>
    <path id="Path-26" data-name="Path" d="M0,0H2V2H0Z" transform="translate(24 12)" fill="#1a1a1a"/>
    <path id="Path-27" data-name="Path" d="M0,0H4V2H2V4H4V6H6V8H4v4H0V10H2V6H0Z" transform="translate(16 14)" fill="#1a1a1a"/>
    <path id="Path-29" data-name="Path" d="M2,0H4V2H6V4H4V6H2V4H0V2H2Z" transform="translate(20 14)" fill="#1a1a1a"/>
    <path id="Path-31" data-name="Path" d="M0,0H2V2H0Z" transform="translate(26 14)" fill="#1a1a1a"/>
    <path id="Path-32" data-name="Path" d="M0,0H2V2H0Z" transform="translate(2 16)" fill="#1a1a1a"/>
    <path id="Path-35" data-name="Path" d="M0,0H2V2H0Z" transform="translate(10 16)" fill="#1a1a1a"/>
    <path id="Path-37" data-name="Path" d="M0,0H2V2H0Z" transform="translate(4 18)" fill="#1a1a1a"/>
    <path id="Path-38" data-name="Path" d="M0,0H2V2H0Z" transform="translate(8 18)" fill="#1a1a1a"/>
    <path id="Path-39" data-name="Path" d="M0,0H2V4H0Z" transform="translate(12 18)" fill="#1a1a1a"/>
    <path id="Path-42" data-name="Path" d="M0,0H2V2H0Z" transform="translate(26 18)" fill="#1a1a1a"/>
    <path id="Path-43" data-name="Path" d="M0,0H2V2H0Z" transform="translate(24 20)" fill="#1a1a1a"/>
    <path id="Path-44" data-name="Path" d="M0,0H2V2H0Z" transform="translate(14 22)" fill="#1a1a1a"/>
    <path id="Path-45" data-name="Path" d="M0,0H2V2H0Z" transform="translate(20 26)" fill="#1a1a1a"/>
    <path id="Path-46" data-name="Path" d="M0,0H6V2H0Z" transform="translate(22 28)" fill="#1a1a1a"/>
  </symbol>
  <symbol id="boy" viewBox="0 0 32 32">
    <path id="Path-2" data-name="Path" d="M12,0H26V2h4V4h2V8H30v2H28v2H26v4H24v2H20V16H18V14h6V12H18V10h4V8H16v2H14v2H12V22H10V20H8v6h4v6H10V28H6V26H4V24H2V20H0V14H2V10H4V6H6V4H8V2h4Z" fill="#1a1a1a"/>
    <path id="Path-6" data-name="Path" d="M0,0H2V2H0Z" transform="translate(26 16)" fill="#1a1a1a"/>
    <path id="Path-7" data-name="Path" d="M0,0H2V2H0Z" transform="translate(28 18)" fill="#1a1a1a"/>
    <path id="Path-9" data-name="Path" d="M2,0H4V8H2V4H0V2H2Z" transform="translate(24 20)" fill="#1a1a1a"/>
    <path id="Path-10" data-name="Path" d="M0,0H6V2H4V4H2V2H0Z" transform="translate(20 28)" fill="#1a1a1a"/>
  </symbol>
  <symbol id="mouse" viewBox="0 0 32 32">
    <path id="Path-2" data-name="Path" d="M0,0H4V2H0Z" transform="translate(6 2)" fill="#1a1a1a"/>
    <path id="Path-3" data-name="Path" d="M0,0H4V2H0Z" transform="translate(22 2)" fill="#1a1a1a"/>
    <path id="Path-4" data-name="Path" d="M0,0H2V6H0Z" transform="translate(4 4)" fill="#1a1a1a"/>
    <path id="Path-6" data-name="Path" d="M0,0H2V2H4V4H0Z" transform="translate(10 4)" fill="#1a1a1a"/>
    <path id="Path-7" data-name="Path" d="M0,0H4V2H0Z" transform="translate(14 4)" fill="#1a1a1a"/>
    <path id="Path-8" data-name="Path" d="M2,0H4V4H0V2H2Z" transform="translate(18 4)" fill="#1a1a1a"/>
    <path id="Path-9" data-name="Path" d="M0,0H2V6H0Z" transform="translate(26 4)" fill="#1a1a1a"/>
    <path id="Path-10" data-name="Path" d="M0,0H4V8H2V2H0Z" transform="translate(6 10)" fill="#1a1a1a"/>
    <path id="Path-11" data-name="Path" d="M0,0H4V2H2V8H0Z" transform="translate(22 10)" fill="#1a1a1a"/>
    <path id="Path-12" data-name="Path" d="M0,0H2V2H0Z" transform="translate(12 12)" fill="#1a1a1a"/>
    <path id="Path-13" data-name="Path" d="M0,0H2V2H0Z" transform="translate(18 12)" fill="#1a1a1a"/>
    <path id="Path-14" data-name="Path" d="M0,0H2V2H0Z" transform="translate(10 18)" fill="#1a1a1a"/>
    <path id="Path-15" data-name="Path" d="M0,0H2V2H0Z" transform="translate(20 18)" fill="#1a1a1a"/>
    <path id="Path-16" data-name="Path" d="M0,0H2V2H0Z" transform="translate(12 20)" fill="#1a1a1a"/>
    <path id="Path-17" data-name="Path" d="M0,0H2V2H0Z" transform="translate(18 20)" fill="#1a1a1a"/>
    <path id="Path-18" data-name="Path" d="M0,0H2V2H0Z" transform="translate(10 22)" fill="#1a1a1a"/>
    <path id="Path-20" data-name="Path" d="M0,0H4V2H0Z" transform="translate(14 22)" fill="#1a1a1a"/>
    <path id="Path-22" data-name="Path" d="M0,0H2V2H0Z" transform="translate(20 22)" fill="#1a1a1a"/>
    <path id="Path-23" data-name="Path" d="M0,0H4V2H0Z" transform="translate(6 24)" fill="#1a1a1a"/>
    <path id="Path-25" data-name="Path" d="M0,0H2V2H0Z" transform="translate(12 24)" fill="#1a1a1a"/>
    <path id="Path-26" data-name="Path" d="M0,0H2V2H0Z" transform="translate(18 24)" fill="#1a1a1a"/>
    <path id="Path-28" data-name="Path" d="M0,0H4V2H0Z" transform="translate(22 24)" fill="#1a1a1a"/>
    <path id="Path-29" data-name="Path" d="M0,0H2V2H0Z" transform="translate(10 26)" fill="#1a1a1a"/>
    <path id="Path-30" data-name="Path" d="M0,0H2V2H0Z" transform="translate(20 26)" fill="#1a1a1a"/>
    <path id="Path-31" data-name="Path" d="M0,0H2V2H0Z" transform="translate(8 28)" fill="#1a1a1a"/>
    <path id="Path-32" data-name="Path" d="M0,0H2V2H0Z" transform="translate(22 28)" fill="#1a1a1a"/>
  </symbol>
  <symbol id="bear"  viewBox="0 0 32 32">
    <path id="Path" d="M0,0H6V2H2V8H0Z" fill="#1a1a1a"/>
    <path id="Path-3" data-name="Path" d="M0,0H6V8H4V2H0Z" transform="translate(26)" fill="#1a1a1a"/>
    <path id="Path-5" data-name="Path" d="M0,0H2V2H0Z" transform="translate(6 2)" fill="#1a1a1a"/>
    <path id="Path-6" data-name="Path" d="M2,0H4V8H2V6H0V4H2Z" transform="translate(22 2)" fill="#1a1a1a"/>
    <path id="Path-8" data-name="Path" d="M0,0H14V2H0Z" transform="translate(8 4)" fill="#1a1a1a"/>
    <path id="Path-9" data-name="Path" d="M0,0H2V2H0Z" transform="translate(6 6)" fill="#1a1a1a"/>
    <path id="Path-12" data-name="Path" d="M0,0H4V4H2V2H0Z" transform="translate(2 8)" fill="#1a1a1a"/>
    <path id="Path-13" data-name="Path" d="M0,0H2V2H0Z" transform="translate(14 8)" fill="#1a1a1a"/>
    <path id="Path-14" data-name="Path" d="M0,0H2V2H0Z" transform="translate(18 8)" fill="#1a1a1a"/>
    <path id="Path-15" data-name="Path" d="M0,0H2V2H0Z" transform="translate(28 8)" fill="#1a1a1a"/>
    <path id="Path-17" data-name="Path" d="M0,0H2V2H0Z" transform="translate(26 10)" fill="#1a1a1a"/>
    <path id="Path-18" data-name="Path" d="M0,0H2V8H0Z" transform="translate(2 12)" fill="#1a1a1a"/>
    <path id="Path-19" data-name="Path" d="M2,0H8V4H6V8h4v2H0V8H4V4H2Z" transform="translate(12 12)" fill="#1a1a1a"/>
    <path id="Path-20" data-name="Path" d="M0,0H2V8H0Z" transform="translate(28 12)" fill="#1a1a1a"/>
    <path id="Path-21" data-name="Path" d="M0,0H2V2H0Z" transform="translate(10 18)" fill="#1a1a1a"/>
    <path id="Path-22" data-name="Path" d="M0,0H2V2H0Z" transform="translate(22 18)" fill="#1a1a1a"/>
    <path id="Path-23" data-name="Path" d="M2,0H4V4H0V2H2Z" transform="translate(2 20)" fill="#1a1a1a"/>
    <path id="Path-24" data-name="Path" d="M0,0H2V2H4V4H0Z" transform="translate(26 20)" fill="#1a1a1a"/>
    <path id="Path-25" data-name="Path" d="M0,0H2V2H0Z" transform="translate(0 24)" fill="#1a1a1a"/>
    <path id="Path-27" data-name="Path" d="M0,0H4V2H0Z" transform="translate(6 24)" fill="#1a1a1a"/>
    <path id="Path-28" data-name="Path" d="M0,0H4V2H0Z" transform="translate(22 24)" fill="#1a1a1a"/>
    <path id="Path-29" data-name="Path" d="M0,0H2V2H0Z" transform="translate(30 24)" fill="#1a1a1a"/>
    <path id="Path-31" data-name="Path" d="M0,0H2V2H0Z" transform="translate(2 26)" fill="#1a1a1a"/>
    <path id="Path-32" data-name="Path" d="M0,0H12V2H0Z" transform="translate(10 26)" fill="#1a1a1a"/>
    <path id="Path-33" data-name="Path" d="M0,0H2V2H0Z" transform="translate(28 26)" fill="#1a1a1a"/>
    <path id="Path-35" data-name="Path" d="M0,0H4V2H0Z" transform="translate(4 28)" fill="#1a1a1a"/>
    <path id="Path-36" data-name="Path" d="M0,0H4V2H0Z" transform="translate(24 28)" fill="#1a1a1a"/>
    <path id="Path-37" data-name="Path" d="M0,0H16V2H0Z" transform="translate(8 30)" fill="#1a1a1a"/>
  </symbol>
  <symbol id="mic" viewBox="0 0 32 32">
    <path id="Path-2" data-name="Path" d="M0,0H2V2H0Z" transform="translate(4)" fill="#1a1a1a"/>
    <path id="Path-4" data-name="Path" d="M0,0H2V2H0Z" transform="translate(2 2)" fill="#1a1a1a"/>
    <path id="Path-5" data-name="Path" d="M0,0H2V2H0Z" transform="translate(26 2)" fill="#1a1a1a"/>
    <path id="Path-6" data-name="Path" d="M0,0H2V8H0Z" transform="translate(0 4)" fill="#1a1a1a"/>
    <path id="Path-7" data-name="Path" d="M0,0H2V2H0Z" transform="translate(6 4)" fill="#1a1a1a"/>
    <path id="Path-8" data-name="Path" d="M0,0H6V2H4V4H2V2H0Z" transform="translate(12 4)" fill="#1a1a1a"/>
    <path id="Path-9" data-name="Path" d="M0,0H2V2H0Z" transform="translate(22 4)" fill="#1a1a1a"/>
    <path id="Path-10" data-name="Path" d="M0,0H2V2H0Z" transform="translate(28 4)" fill="#1a1a1a"/>
    <path id="Path-11" data-name="Path" d="M0,0H2V8H0Z" transform="translate(4 6)" fill="#1a1a1a"/>
    <path id="Path-12" data-name="Path" d="M0,0H2V2H4V4H2V6H4V8H6V6H8V4H6V2H8V0h2V8H8v4h2v2h2v2H10v2h2v2H10v4H8V22H4V20H8V18H4V16H8V14H0V12H2V8H0Z" transform="translate(10 6)" fill="#1a1a1a"/>
    <path id="Path-15" data-name="Path" d="M0,0H2V6H0Z" transform="translate(24 6)" fill="#1a1a1a"/>
    <path id="Path-16" data-name="Path" d="M0,0H2V8H0Z" transform="translate(30 6)" fill="#1a1a1a"/>
    <path id="Path-19" data-name="Path" d="M0,0H2V2H0Z" transform="translate(14 10)" fill="#1a1a1a"/>
    <path id="Path-22" data-name="Path" d="M0,0H2V2H0Z" transform="translate(6 14)" fill="#1a1a1a"/>
    <path id="Path-23" data-name="Path" d="M0,0H2V2H0Z" transform="translate(22 14)" fill="#1a1a1a"/>
    <path id="Path-24" data-name="Path" d="M0,0H2V2H0Z" transform="translate(28 14)" fill="#1a1a1a"/>
    <path id="Path-26" data-name="Path" d="M0,0H2V2H0Z" transform="translate(26 16)" fill="#1a1a1a"/>
    <path id="Path-27" data-name="Path" d="M0,0H2V2H0Z" transform="translate(8 20)" fill="#1a1a1a"/>
    <path id="Path-29" data-name="Path" d="M0,0H2V6H0Z" transform="translate(6 22)" fill="#1a1a1a"/>
    <path id="Path-31" data-name="Path" d="M0,0H2V2H0Z" transform="translate(22 22)" fill="#1a1a1a"/>
    <path id="Path-32" data-name="Path" d="M0,0H2V2H0Z" transform="translate(8 28)" fill="#1a1a1a"/>
    <path id="Path-33" data-name="Path" d="M0,0H8V2H0Z" transform="translate(10 30)" fill="#1a1a1a"/>
  </symbol>
  <symbol id="golf" viewBox="0 0 32 32">
    <path id="Path-2" data-name="Path" d="M2,0H6V2H4V8H6v2H4V24H8v2H4v4H8v2H0V30H2V26H0V24H2Z" transform="translate(8)" fill="#1a1a1a"/>
    <path id="Path-5" data-name="Path" d="M0,0H4V2H0Z" transform="translate(14 2)" fill="#1a1a1a"/>
    <path id="Path-6" data-name="Path" d="M0,0H2V2H0Z" transform="translate(18 4)" fill="#1a1a1a"/>
    <path id="Path-7" data-name="Path" d="M0,0H4V2H0Z" transform="translate(14 6)" fill="#1a1a1a"/>
    <path id="Path-8" data-name="Path" d="M0,0H4V2H0Z" transform="translate(22 16)" fill="#1a1a1a"/>
    <path id="Path-9" data-name="Path" d="M0,0H2V4H6V0H8V2h2V4H8V6H6V8H2V6H0Z" transform="translate(20 18)" fill="#1a1a1a"/>
    <path id="Path-11" data-name="Path" d="M0,0H2V4H0Z" transform="translate(6 26)" fill="#1a1a1a"/>
    <path id="Path-14" data-name="Path" d="M0,0H2V4H0Z" transform="translate(16 26)" fill="#1a1a1a"/>
  </symbol>
  <symbol id="fish" viewBox="0 0 32 32">
    <path id="Path" d="M0,0H2V8H0Z" fill="#1a1a1a"/>
    <path id="Path-3" data-name="Path" d="M0,0H2V4H0Z" transform="translate(4 4)" fill="#1a1a1a"/>
    <path id="Path-4" data-name="Path" d="M4,0H14V2H6v8H2v4H0V6H4Z" transform="translate(6 6)" fill="#1a1a1a"/>
    <path id="Path-5" data-name="Path" d="M0,0H2V2H0Z" transform="translate(2 8)" fill="#1a1a1a"/>
    <path id="Path-7" data-name="Path" d="M0,0H2V2H0Z" transform="translate(20 8)" fill="#1a1a1a"/>
    <path id="Path-8" data-name="Path" d="M0,0H4V4H0Z" transform="translate(14 10)" fill="#1a1a1a"/>
    <path id="Path-9" data-name="Path" d="M2,0H4V2H8v8H6V4H4v6H2V4H0V2H2Z" transform="translate(20 10)" fill="#1a1a1a"/>
    <path id="Path-10" data-name="Path" d="M0,0H2V2H0Z" transform="translate(18 14)" fill="#1a1a1a"/>
    <path id="Path-13" data-name="Path" d="M0,0H2V2H0Z" transform="translate(16 16)" fill="#1a1a1a"/>
    <path id="Path-14" data-name="Path" d="M2,0H6V2H4V6H6V2H8V6h4V8H2V6H0V4H2Z" transform="translate(10 18)" fill="#1a1a1a"/>
    <path id="Path-15" data-name="Path" d="M0,0H2V2H0Z" transform="translate(8 20)" fill="#1a1a1a"/>
    <path id="Path-17" data-name="Path" d="M0,0H2V4H6V8H4V6H0Z" transform="translate(24 20)" fill="#1a1a1a"/>
    <path id="Path-18" data-name="Path" d="M0,0H2V4H4V6H0Z" transform="translate(22 26)" fill="#1a1a1a"/>
    <path id="Path-20" data-name="Path" d="M0,0H2V2H0Z" transform="translate(26 28)" fill="#1a1a1a"/>
  </symbol>
  <symbol id="camera" viewBox="0 0 32 32">
    <path id="Path-2" data-name="Path" d="M22,0h6V4h2V6H24V8H22v2h2v6H22v2H16V16H14V10h2V8H14V6H10v4H2V22H14V20H24v2h6V6h2V24H0V4H22Z" transform="translate(0 4)" fill="#1a1a1a"/>
    <path id="Path-7" data-name="Path" d="M0,0H2V2H0Z" transform="translate(12 12)" fill="#1a1a1a"/>
    <path id="Path-10" data-name="Path" d="M0,0H2V2H0Z" transform="translate(24 12)" fill="#1a1a1a"/>
    <path id="Path-12" data-name="Path" d="M0,0H2V8H0Z" transform="translate(10 14)" fill="#1a1a1a"/>
    <path id="Path-14" data-name="Path" d="M0,0H2V8H0Z" transform="translate(26 14)" fill="#1a1a1a"/>
    <path id="Path-15" data-name="Path" d="M0,0H2V2H0Z" transform="translate(12 22)" fill="#1a1a1a"/>
    <path id="Path-16" data-name="Path" d="M0,0H2V2H0Z" transform="translate(24 22)" fill="#1a1a1a"/>
  </symbol>
  <symbol id="moon" viewBox="0 0 32 32">
      <path id="Path" d="M0," fill="#ffffff"/>
      <path id="Path-2" data-name="Path" d="M0,0H12V2H6V4H4V2H0Z" transform="translate(8)" fill="#1a1a1a"/>
      <path id="Path-4" data-name="Path" d="M0,0H4V2H0Z" transform="translate(20 2)" fill="#1a1a1a"/>
      <path id="Path-5" data-name="Path" d="M0,0H2V2H0Z" transform="translate(14 4)" fill="#1a1a1a"/>
      <path id="Path-6" data-name="Path" d="M0,0H2V2H0Z" transform="translate(24 4)" fill="#1a1a1a"/>
      <path id="Path-7" data-name="Path" d="M0,0H2V2H0Z" transform="translate(6 6)" fill="#1a1a1a"/>
      <path id="Path-8" data-name="Path" d="M0,0H2V2H0Z" transform="translate(16 6)" fill="#1a1a1a"/>
      <path id="Path-9" data-name="Path" d="M0,0H2V4H0Z" transform="translate(26 6)" fill="#1a1a1a"/>
      <path id="Path-10" data-name="Path" d="M2,0H4V4H0V2H2Z" transform="translate(2 8)" fill="#1a1a1a"/>
      <path id="Path-12" data-name="Path" d="M0,0H2V2H4V4H0Z" transform="translate(8 8)" fill="#1a1a1a"/>
      <path id="Path-13" data-name="Path" d="M2,0H4V6H6V8H0V6H2Z" transform="translate(16 8)" fill="#1a1a1a"/>
      <path id="Path-14" data-name="Path" d="M0,0H2V10H0Z" transform="translate(28 10)" fill="#1a1a1a"/>
      <path id="Path-15" data-name="Path" d="M0,0H2V2H0Z" transform="translate(0 12)" fill="#1a1a1a"/>
      <path id="Path-16" data-name="Path" d="M0,0H2V2H0Z" transform="translate(12 12)" fill="#1a1a1a"/>
      <path id="Path-17" data-name="Path" d="M0,0H4V4H2V2H0Z" transform="translate(22 12)" fill="#1a1a1a"/>
      <path id="Path-18" data-name="Path" d="M0,0H4V4H2V2H0Z" transform="translate(2 14)" fill="#1a1a1a"/>
      <path id="Path-19" data-name="Path" d="M0,0H4V2H2V4H0Z" transform="translate(8 14)" fill="#1a1a1a"/>
      <path id="Path-20" data-name="Path" d="M0,0H2V2H4V6H6V8H2V4H0Z" transform="translate(14 16)" fill="#1a1a1a"/>
      <path id="Path-21" data-name="Path" d="M0,0H2V2H0Z" transform="translate(6 18)" fill="#1a1a1a"/>
      <path id="Path-22" data-name="Path" d="M0,0H2V4H0Z" transform="translate(26 20)" fill="#1a1a1a"/>
      <path id="Path-23" data-name="Path" d="M0,0H2V2H0Z" transform="translate(14 24)" fill="#1a1a1a"/>
      <path id="Path-24" data-name="Path" d="M0,0H2V2H0Z" transform="translate(24 24)" fill="#1a1a1a"/>
      <path id="Path-25" data-name="Path" d="M4,0H6V2h6V4H0V2H4Z" transform="translate(8 26)" fill="#1a1a1a"/>
      <path id="Path-26" data-name="Path" d="M0,0H4V2H0Z" transform="translate(20 26)" fill="#1a1a1a"/>
      <path id="Path-27" data-name="Path" d="M0,0H4V2H0Z" transform="translate(2 28)" fill="#1a1a1a"/>
  </symbol>
  <symbol id="horse" viewBox="0 0 32 32">
    <path id="Path" d="M0,0H8V2h2V4h2v8h4v2h2V12h8v2h2v2H26V30H24V20H22v8H20V20H18V18H12v2H8V30H6V22H4V20H2V18H4V14H6V8H4v2H0V6H2V2H0Z" fill="#1a1a1a"/>
    <path id="Path-6" data-name="Path" d="M0,0H2V12H0Z" transform="translate(28 16)" fill="#1a1a1a"/>
    <path id="Path-8" data-name="Path" d="M0,0H2V4H0Z" transform="translate(0 20)" fill="#1a1a1a"/>
    <path id="Path-10" data-name="Path" d="M0,0H2V4H0Z" transform="translate(2 24)" fill="#1a1a1a"/>
    <path id="Path-11" data-name="Path" d="M0,0H2V2H0Z" transform="translate(18 28)" fill="#1a1a1a"/>
    <path id="Path-12" data-name="Path" d="M0,0H2V2H0Z" transform="translate(4 30)" fill="#1a1a1a"/>
    <path id="Path-13" data-name="Path" d="M0,0H2V2H0Z" transform="translate(22 30)" fill="#1a1a1a"/>
  </symbol>
  <symbol id="train" viewBox="0 0 32 32">
    <path id="Path-2" data-name="Path" d="M0,0H24V2H0Z" transform="translate(4)" fill="#1a1a1a"/>
    <path id="Path-4" data-name="Path" d="M0,0H2V2H0Z" transform="translate(2 2)" fill="#1a1a1a"/>
    <path id="Path-6" data-name="Path" d="M0,0H2V2H0Z" transform="translate(28 2)" fill="#1a1a1a"/>
    <path id="Path-7" data-name="Path" d="M0,0H2V22H0Z" transform="translate(0 4)" fill="#1a1a1a"/>
    <path id="Path-8" data-name="Path" d="M0,0H2V22H0Z" transform="translate(30 4)" fill="#1a1a1a"/>
    <path id="Path-9" data-name="Path" d="M0,0H24V10H0Z" transform="translate(4 6)" fill="#1a1a1a"/>
    <path id="Path-12" data-name="Path" d="M0,0H2V2H0Z" transform="translate(8 18)" fill="#1a1a1a"/>
    <path id="Path-13" data-name="Path" d="M0,0H2V2H0Z" transform="translate(22 18)" fill="#1a1a1a"/>
    <path id="Path-14" data-name="Path" d="M0,0H2V2H0Z" transform="translate(6 20)" fill="#1a1a1a"/>
    <path id="Path-16" data-name="Path" d="M0,0H2V2H0Z" transform="translate(10 20)" fill="#1a1a1a"/>
    <path id="Path-17" data-name="Path" d="M0,0H2V2H0Z" transform="translate(20 20)" fill="#1a1a1a"/>
    <path id="Path-19" data-name="Path" d="M0,0H2V2H0Z" transform="translate(24 20)" fill="#1a1a1a"/>
    <path id="Path-20" data-name="Path" d="M0,0H2V2H0Z" transform="translate(8 22)" fill="#1a1a1a"/>
    <path id="Path-21" data-name="Path" d="M0,0H2V2H0Z" transform="translate(22 22)" fill="#1a1a1a"/>
    <path id="Path-23" data-name="Path" d="M0,0H28V2H26V6H20V4H8V6H2V2H0Z" transform="translate(2 26)" fill="#1a1a1a"/>
  </symbol>
  <symbol id="car" viewBox="0 0 32 32">
    <path id="Path-2" data-name="Path" d="M14,0H26V4H24V2H22V8h6V6h2V8h2V20H30V16H28V14H24v2H22v4H14V16H12V14H8v2H6v4H2V18H0V12H2V10H4V8H8V6h2V8H20V2H14Z" transform="translate(0 4)" fill="#1a1a1a"/>
    <path id="Path-3" data-name="Path" d="M0,0H2V2H0Z" transform="translate(12 6)" fill="#1a1a1a"/>
    <path id="Path-6" data-name="Path" d="M0,0H2V2H0Z" transform="translate(10 8)" fill="#1a1a1a"/>
    <path id="Path-7" data-name="Path" d="M0,0H2V2H0Z" transform="translate(26 8)" fill="#1a1a1a"/>
    <path id="Path-12" data-name="Path" d="M0,0H4V4H0Z" transform="translate(8 20)" fill="#1a1a1a"/>
    <path id="Path-15" data-name="Path" d="M0,0H4V4H0Z" transform="translate(24 20)" fill="#1a1a1a"/>
    <path id="Path-18" data-name="Path" d="M0,0H2V2H0Z" transform="translate(6 24)" fill="#1a1a1a"/>
    <path id="Path-20" data-name="Path" d="M0,0H2V2H0Z" transform="translate(12 24)" fill="#1a1a1a"/>
    <path id="Path-21" data-name="Path" d="M0,0H2V2H0Z" transform="translate(22 24)" fill="#1a1a1a"/>
    <path id="Path-23" data-name="Path" d="M0,0H2V2H0Z" transform="translate(28 24)" fill="#1a1a1a"/>
    <path id="Path-24" data-name="Path" d="M0,0H4V2H0Z" transform="translate(8 26)" fill="#1a1a1a"/>
    <path id="Path-25" data-name="Path" d="M0,0H4V2H0Z" transform="translate(24 26)" fill="#1a1a1a"/>
  </symbol>
  <symbol id="poio" viewBox="0 0 32 32">
    <path id="Path-2" data-name="Path" d="M0,0H2V2H0Z" transform="translate(24)" fill="#1a1a1a"/>
    <path id="Path-4" data-name="Path" d="M0,0H8V2H0Z" transform="translate(12 2)" fill="#1a1a1a"/>
    <path id="Path-5" data-name="Path" d="M0,0H2V2H0Z" transform="translate(22 2)" fill="#1a1a1a"/>
    <path id="Path-6" data-name="Path" d="M0,0H2V2H0Z" transform="translate(10 4)" fill="#1a1a1a"/>
    <path id="Path-8" data-name="Path" d="M0,0H2V2H0Z" transform="translate(20 4)" fill="#1a1a1a"/>
    <path id="Path-10" data-name="Path" d="M0,0H4V2H0Z" transform="translate(24 4)" fill="#1a1a1a"/>
    <path id="Path-11" data-name="Path" d="M2,0h8V4H8v6H6V8H4V6H2V4H0V2H2Z" transform="translate(0 6)" fill="#1a1a1a"/>
    <path id="Path-12" data-name="Path" d="M22,0h2V4h2v6h2V26H0V22H2v2H12V22h2v2H26V12H24V6H22Z" transform="translate(0 6)" fill="#1a1a1a"/>
    <path id="Path-13" data-name="Path" d="M0,0H2V4H0Z" transform="translate(12 8)" fill="#1a1a1a"/>
    <path id="Path-15" data-name="Path" d="M0,0H2V2H0Z" transform="translate(18 14)" fill="#1a1a1a"/>
    <path id="Path-16" data-name="Path" d="M2,0H4V10h6v2H0V10H2Z" transform="translate(2 16)" fill="#1a1a1a"/>
    <path id="Path-17" data-name="Path" d="M0,0H2V6H0Z" transform="translate(20 16)" fill="#1a1a1a"/>
    <path id="Path-18" data-name="Path" d="M0,0H2V2H0Z" transform="translate(14 18)" fill="#1a1a1a"/>
    <path id="Path-19" data-name="Path" d="M0,0H2V2H0Z" transform="translate(16 20)" fill="#1a1a1a"/>
    <path id="Path-20" data-name="Path" d="M0,0H2V2H0Z" transform="translate(18 22)" fill="#1a1a1a"/>
  </symbol>
  <symbol id="soccer" viewBox="0 0 32 32">
    <path id="Path-2" data-name="Path" d="M8,0h4V6h4V8h2v2h2v6H18V12H16v4h2v6h4v2h2v6H22V26H20V24H16V22H14V20H12v2H10v2H8v6H0V28H4V24H6V22H8V18h2V14H4V12H8V6h2V4H8Z" transform="translate(4)" fill="#1a1a1a"/>
    <path id="Path-3" data-name="Path" d="M0,0H2V2H0Z" transform="translate(6 10)" fill="#1a1a1a"/>
    <path id="Path-5" data-name="Path" d="M0,0H4V2H0Z" transform="translate(4 22)" fill="#1a1a1a"/>
    <path id="Path-6" data-name="Path" d="M0,0H2V4H0Z" transform="translate(2 24)" fill="#1a1a1a"/>
  </symbol>
  <symbol id="ski" viewBox="0 0 32 32">
    <path id="Path-2" data-name="Path" d="M0,0H4V2H6V6H4V4H2V6H0Z" transform="translate(16)" fill="#1a1a1a"/>
    <path id="Path-5" data-name="Path" d="M0,0H4V2H0Z" transform="translate(12 6)" fill="#1a1a1a"/>
    <path id="Path-7" data-name="Path" d="M0,0H2V2H0Z" transform="translate(18 6)" fill="#1a1a1a"/>
    <path id="Path-8" data-name="Path" d="M0,0H2V2H0Z" transform="translate(10 8)" fill="#1a1a1a"/>
    <path id="Path-9" data-name="Path" d="M0,0H4V2H0Z" transform="translate(20 8)" fill="#1a1a1a"/>
    <path id="Path-10" data-name="Path" d="M0,0H2V2H6V4h6V8H10V6H4v4H2V8H0V6H2V4H0Z" transform="translate(8 10)" fill="#1a1a1a"/>
    <path id="Path-11" data-name="Path" d="M0,0H2V2H0Z" transform="translate(14 10)" fill="#1a1a1a"/>
    <path id="Path-12" data-name="Path" d="M4,0H6V2H8V4H6V6H4V4H0V2H4Z" transform="translate(20 10)" fill="#1a1a1a"/>
    <path id="Path-13" data-name="Path" d="M0,0H2V2H0Z" transform="translate(28 10)" fill="#1a1a1a"/>
    <path id="Path-16" data-name="Path" d="M0,0H2V2H0Z" transform="translate(22 16)" fill="#1a1a1a"/>
    <path id="Path-17" data-name="Path" d="M0,0H2V2H0Z" transform="translate(6 18)" fill="#1a1a1a"/>
    <path id="Path-19" data-name="Path" d="M0,0H2V2H0Z" transform="translate(20 18)" fill="#1a1a1a"/>
    <path id="Path-20" data-name="Path" d="M0,0H2V2H0Z" transform="translate(4 20)" fill="#1a1a1a"/>
    <path id="Path-21" data-name="Path" d="M0,0H4V4H2V2H0Z" transform="translate(12 20)" fill="#1a1a1a"/>
    <path id="Path-22" data-name="Path" d="M16,0h2V8h2V0h2V8h6v2H0V8H10V4h2V8h2V4h2Z" transform="translate(2 20)" fill="#1a1a1a"/>
    <path id="Path-24" data-name="Path" d="M0,0H2V2H0Z" transform="translate(2 22)" fill="#1a1a1a"/>
    <path id="Path-25" data-name="Path" d="M0,0H2V2H0Z" transform="translate(0 24)" fill="#1a1a1a"/>
    <path id="Path-27" data-name="Path" d="M0,0H2V2H0Z" transform="translate(30 26)" fill="#1a1a1a"/>
  </symbol>
  <symbol id="sun" viewBox="0 0 32 32">
    <path id="Path-2" data-name="Path" d="M0,0H2V4H0Z" transform="translate(16)" fill="#1a1a1a"/>
    <path id="Path-3" data-name="Path" d="M0,0H2V2H0Z" transform="translate(2 2)" fill="#1a1a1a"/>
    <path id="Path-4" data-name="Path" d="M0,0H2V2H0Z" transform="translate(28 2)" fill="#1a1a1a"/>
    <path id="Path-5" data-name="Path" d="M0,0H2V2H0Z" transform="translate(4 4)" fill="#1a1a1a"/>
    <path id="Path-6" data-name="Path" d="M0,0H2V2H0Z" transform="translate(26 4)" fill="#1a1a1a"/>
    <path id="Path-7" data-name="Path" d="M0,0H2V2H0Z" transform="translate(6 6)" fill="#1a1a1a"/>
    <path id="Path-8" data-name="Path" d="M0,0H8V2H0Z" transform="translate(12 6)" fill="#1a1a1a"/>
    <path id="Path-9" data-name="Path" d="M0,0H2V2H0Z" transform="translate(24 6)" fill="#1a1a1a"/>
    <path id="Path-10" data-name="Path" d="M0,0H2V2H0Z" transform="translate(10 8)" fill="#1a1a1a"/>
    <path id="Path-12" data-name="Path" d="M0,0H2V2H0Z" transform="translate(20 8)" fill="#1a1a1a"/>
    <path id="Path-13" data-name="Path" d="M0,0H2V2H0Z" transform="translate(8 10)" fill="#1a1a1a"/>
    <path id="Path-15" data-name="Path" d="M2,0H4V4H0V2H2Z" transform="translate(10 10)" fill="#1a1a1a"/>
    <path id="Path-16" data-name="Path" d="M2,0H4V2H6V4H2V6H0V2H2Z" transform="translate(16 10)" fill="#1a1a1a"/>
    <path id="Path-18" data-name="Path" d="M0,0H2V2H0Z" transform="translate(22 10)" fill="#1a1a1a"/>
    <path id="Path-19" data-name="Path" d="M0,0H2V8H0Z" transform="translate(6 12)" fill="#1a1a1a"/>
    <path id="Path-20" data-name="Path" d="M0,0H2V8H0Z" transform="translate(24 12)" fill="#1a1a1a"/>
    <path id="Path-21" data-name="Path" d="M0,0H4V2H0Z" transform="translate(0 16)" fill="#1a1a1a"/>
    <path id="Path-22" data-name="Path" d="M0,0H4V2H0Z" transform="translate(28 16)" fill="#1a1a1a"/>
    <path id="Path-23" data-name="Path" d="M0,0H12V2H8V4H4V2H0Z" transform="translate(10 18)" fill="#1a1a1a"/>
    <path id="Path-24" data-name="Path" d="M0,0H2V2H0Z" transform="translate(8 20)" fill="#1a1a1a"/>
    <path id="Path-26" data-name="Path" d="M0,0H2V2H0Z" transform="translate(22 20)" fill="#1a1a1a"/>
    <path id="Path-27" data-name="Path" d="M0,0H2V2H0Z" transform="translate(10 22)" fill="#1a1a1a"/>
    <path id="Path-28" data-name="Path" d="M0,0H2V2H0Z" transform="translate(20 22)" fill="#1a1a1a"/>
    <path id="Path-29" data-name="Path" d="M0,0H2V2H0Z" transform="translate(6 24)" fill="#1a1a1a"/>
    <path id="Path-30" data-name="Path" d="M0,0H8V2H0Z" transform="translate(12 24)" fill="#1a1a1a"/>
    <path id="Path-31" data-name="Path" d="M0,0H2V2H0Z" transform="translate(24 24)" fill="#1a1a1a"/>
    <path id="Path-32" data-name="Path" d="M0,0H2V2H0Z" transform="translate(4 26)" fill="#1a1a1a"/>
    <path id="Path-33" data-name="Path" d="M0,0H2V2H0Z" transform="translate(26 26)" fill="#1a1a1a"/>
    <path id="Path-34" data-name="Path" d="M0,0H2V2H0Z" transform="translate(2 28)" fill="#1a1a1a"/>
    <path id="Path-35" data-name="Path" d="M0,0H2V4H0Z" transform="translate(16 28)" fill="#1a1a1a"/>
    <path id="Path-36" data-name="Path" d="M0,0H2V2H0Z" transform="translate(28 28)" fill="#1a1a1a"/>
  </symbol>
  <symbol id="cat" viewBox="0 0 32 32">
    <path id="Path" d="M0,0H4V2H2V6H4v4H2v2H0Z" fill="#1a1a1a"/>
    <path id="Path-3" data-name="Path" d="M0,0H4V12H2V10H0V6H2V2H0Z" transform="translate(26)" fill="#1a1a1a"/>
    <path id="Path-6" data-name="Path" d="M0,0H2V2H0Z" transform="translate(4 2)" fill="#1a1a1a"/>
    <path id="Path-7" data-name="Path" d="M0,0H2V2H0Z" transform="translate(24 2)" fill="#1a1a1a"/>
    <path id="Path-8" data-name="Path" d="M0,0H2V2H0Z" transform="translate(6 4)" fill="#1a1a1a"/>
    <path id="Path-9" data-name="Path" d="M0,0H2V2H0Z" transform="translate(22 4)" fill="#1a1a1a"/>
    <path id="Path-10" data-name="Path" d="M0,0H14V2H10V4H8V2H6V4H4V2H0Z" transform="translate(8 6)" fill="#1a1a1a"/>
    <path id="Path-11" data-name="Path" d="M0,0H2V2H0Z" transform="translate(6 8)" fill="#1a1a1a"/>
    <path id="Path-13" data-name="Path" d="M0,0H2V2H0Z" transform="translate(22 8)" fill="#1a1a1a"/>
    <path id="Path-14" data-name="Path" d="M0,0H2V2H0Z" transform="translate(14 10)" fill="#1a1a1a"/>
    <path id="Path-16" data-name="Path" d="M0,0H2V2H4V4H0Z" transform="translate(2 12)" fill="#1a1a1a"/>
    <path id="Path-17" data-name="Path" d="M0,0H6V4H2V2H0Z" transform="translate(6 12)" fill="#1a1a1a"/>
    <path id="Path-18" data-name="Path" d="M0,0H6V2H4V4H0Z" transform="translate(18 12)" fill="#1a1a1a"/>
    <path id="Path-19" data-name="Path" d="M2,0H4V4H0V2H2Z" transform="translate(24 12)" fill="#1a1a1a"/>
    <path id="Path-21" data-name="Path" d="M0,0H2V2H8V4H2V8H0Z" transform="translate(0 16)" fill="#1a1a1a"/>
    <path id="Path-22" data-name="Path" d="M0,0H2V2H0Z" transform="translate(12 16)" fill="#1a1a1a"/>
    <path id="Path-23" data-name="Path" d="M0,0H2V2H0Z" transform="translate(16 16)" fill="#1a1a1a"/>
    <path id="Path-24" data-name="Path" d="M6,0H8V8H6V4H0V2H6Z" transform="translate(22 16)" fill="#1a1a1a"/>
    <path id="Path-25" data-name="Path" d="M4,0H6V2h4V4H8V6H6V4H4V6H2V4H0V2H4Z" transform="translate(10 18)" fill="#1a1a1a"/>
    <path id="Path-26" data-name="Path" d="M2,0H6V2H4V4H0V2H2Z" transform="translate(2 22)" fill="#1a1a1a"/>
    <path id="Path-28" data-name="Path" d="M0,0H4V2H6V4H2V2H0Z" transform="translate(22 22)" fill="#1a1a1a"/>
    <path id="Path-29" data-name="Path" d="M0,0H2V2H0Z" transform="translate(14 24)" fill="#1a1a1a"/>
    <path id="Path-30" data-name="Path" d="M0,0H6V2H0Z" transform="translate(6 26)" fill="#1a1a1a"/>
    <path id="Path-31" data-name="Path" d="M0,0H6V2H0Z" transform="translate(18 26)" fill="#1a1a1a"/>
    <path id="Path-32" data-name="Path" d="M0,0H6V2H0Z" transform="translate(12 28)" fill="#1a1a1a"/>
  </symbol>
  <symbol id="heart" viewBox="0 0 32 32">
    <path id="Path-2" data-name="Path" d="M6,0h4V2h2V4h2v8H12v2H10v4h4v2h2v4H14v4H12V26H10V24H8V22H6V20H4V18H2V14H0V6H2V4H4V2H6Z" transform="translate(2 2)" fill="#1a1a1a"/>
    <path id="Path-3" data-name="Path" d="M4,0H8V2h2V4h2V6h2v8H12v4H10v4H8v2H6v2H4v2H2V24H4V18H2V16H0V14H2V12H4V8H2V2H4Z" transform="translate(16 2)" fill="#1a1a1a"/>
  </symbol>
</svg>  